{
    "accessors": [
        {
            "bufferView": 0,
            "componentType": 5126,
            "count": 3906,
            "max": [
                143.69358825683594,
                69.98919677734375,
                391.7295837402344
            ],
            "min": [
                96.78459930419922,
                -68.93290710449219,
                344.820556640625
            ],
            "type": "VEC3"
        },
        {
            "bufferView": 1,
            "componentType": 5126,
            "count": 3906,
            "type": "VEC3"
        },
        {
            "bufferView": 2,
            "componentType": 5125,
            "count": 22272,
            "type": "SCALAR"
        },
        {
            "bufferView": 3,
            "componentType": 5126,
            "count": 18725,
            "max": [
                230.12294006347656,
                93.52458190917969,
                305.3354797363281
            ],
            "min": [
                -134.0570068359375,
                -94.09422302246094,
                -2.3691556453704834
            ],
            "type": "VEC3"
        },
        {
            "bufferView": 4,
            "componentType": 5126,
            "count": 18725,
            "type": "VEC3"
        },
        {
            "bufferView": 5,
            "componentType": 5125,
            "count": 109671,
            "type": "SCALAR"
        },
        {
            "bufferView": 6,
            "componentType": 5126,
            "count": 4852,
            "max": [
                128.21353149414062,
                49.5787239074707,
                347.6852722167969
            ],
            "min": [
                111.17533874511719,
                -49.63176345825195,
                295.1548156738281
            ],
            "type": "VEC3"
        },
        {
            "bufferView": 7,
            "componentType": 5126,
            "count": 4852,
            "type": "VEC3"
        },
        {
            "bufferView": 8,
            "componentType": 5125,
            "count": 26787,
            "type": "SCALAR"
        },
        {
            "bufferView": 9,
            "componentType": 5126,
            "count": 606,
            "max": [
                221.76858520507812,
                73.00910949707031,
                215.5216827392578
            ],
            "min": [
                180.33627319335938,
                -72.48778533935547,
                191.03216552734375
            ],
            "type": "VEC3"
        },
        {
            "bufferView": 10,
            "componentType": 5126,
            "count": 606,
            "type": "VEC3"
        },
        {
            "bufferView": 11,
            "componentType": 5125,
            "count": 3048,
            "type": "SCALAR"
        },
        {
            "bufferView": 12,
            "componentType": 5126,
            "count": 4290,
            "max": [
                222.44371032714844,
                63.18845748901367,
                259.289306640625
            ],
            "min": [
                185.90850830078125,
                -63.20779800415039,
                209.27523803710938
            ],
            "type": "VEC3"
        },
        {
            "bufferView": 13,
            "componentType": 5126,
            "count": 4290,
            "type": "VEC3"
        },
        {
            "bufferView": 14,
            "componentType": 5125,
            "count": 24576,
            "type": "SCALAR"
        },
        {
            "bufferView": 15,
            "componentType": 5126,
            "count": 3022,
            "max": [
                219.7823486328125,
                53.03249740600586,
                242.45501708984375
            ],
            "min": [
                199.500244140625,
                -53.03249740600586,
                220.90623474121094
            ],
            "type": "VEC3"
        },
        {
            "bufferView": 16,
            "componentType": 5126,
            "count": 3022,
            "type": "VEC3"
        },
        {
            "bufferView": 17,
            "componentType": 5125,
            "count": 17112,
            "type": "SCALAR"
        },
        {
            "bufferView": 18,
            "componentType": 5126,
            "count": 1245,
            "max": [
                229.03526306152344,
                48.70452117919922,
                171.79161071777344
            ],
            "min": [
                211.42523193359375,
                -44.49203109741211,
                144.24630737304688
            ],
            "type": "VEC3"
        },
        {
            "bufferView": 19,
            "componentType": 5126,
            "count": 1245,
            "type": "VEC3"
        },
        {
            "bufferView": 20,
            "componentType": 5125,
            "count": 6690,
            "type": "SCALAR"
        },
        {
            "bufferView": 21,
            "componentType": 5126,
            "count": 8750,
            "max": [
                -106.06968688964844,
                85.17379760742188,
                207.2364959716797
            ],
            "min": [
                -255.27072143554688,
                -83.7292709350586,
                6.204747676849365
            ],
            "type": "VEC3"
        },
        {
            "bufferView": 22,
            "componentType": 5126,
            "count": 8750,
            "type": "VEC3"
        },
        {
            "bufferView": 23,
            "componentType": 5125,
            "count": 51483,
            "type": "SCALAR"
        }
    ],
    "asset": {
        "generator": "Luxion KeyShot",
        "version": "2.0"
    },
    "bufferViews": [
        {
            "buffer": 0,
            "byteLength": 46872,
            "byteOffset": 0,
            "byteStride": 12
        },
        {
            "buffer": 0,
            "byteLength": 46872,
            "byteOffset": 46872,
            "byteStride": 12
        },
        {
            "buffer": 0,
            "byteLength": 89088,
            "byteOffset": 93744
        },
        {
            "buffer": 0,
            "byteLength": 224700,
            "byteOffset": 182832,
            "byteStride": 12
        },
        {
            "buffer": 0,
            "byteLength": 224700,
            "byteOffset": 407532,
            "byteStride": 12
        },
        {
            "buffer": 0,
            "byteLength": 438684,
            "byteOffset": 632232
        },
        {
            "buffer": 0,
            "byteLength": 58224,
            "byteOffset": 1070916,
            "byteStride": 12
        },
        {
            "buffer": 0,
            "byteLength": 58224,
            "byteOffset": 1129140,
            "byteStride": 12
        },
        {
            "buffer": 0,
            "byteLength": 107148,
            "byteOffset": 1187364
        },
        {
            "buffer": 0,
            "byteLength": 7272,
            "byteOffset": 1294512,
            "byteStride": 12
        },
        {
            "buffer": 0,
            "byteLength": 7272,
            "byteOffset": 1301784,
            "byteStride": 12
        },
        {
            "buffer": 0,
            "byteLength": 12192,
            "byteOffset": 1309056
        },
        {
            "buffer": 0,
            "byteLength": 51480,
            "byteOffset": 1321248,
            "byteStride": 12
        },
        {
            "buffer": 0,
            "byteLength": 51480,
            "byteOffset": 1372728,
            "byteStride": 12
        },
        {
            "buffer": 0,
            "byteLength": 98304,
            "byteOffset": 1424208
        },
        {
            "buffer": 0,
            "byteLength": 36264,
            "byteOffset": 1522512,
            "byteStride": 12
        },
        {
            "buffer": 0,
            "byteLength": 36264,
            "byteOffset": 1558776,
            "byteStride": 12
        },
        {
            "buffer": 0,
            "byteLength": 68448,
            "byteOffset": 1595040
        },
        {
            "buffer": 0,
            "byteLength": 14940,
            "byteOffset": 1663488,
            "byteStride": 12
        },
        {
            "buffer": 0,
            "byteLength": 14940,
            "byteOffset": 1678428,
            "byteStride": 12
        },
        {
            "buffer": 0,
            "byteLength": 26760,
            "byteOffset": 1693368
        },
        {
            "buffer": 0,
            "byteLength": 105000,
            "byteOffset": 1720128,
            "byteStride": 12
        },
        {
            "buffer": 0,
            "byteLength": 105000,
            "byteOffset": 1825128,
            "byteStride": 12
        },
        {
            "buffer": 0,
            "byteLength": 205932,
            "byteOffset": 1930128
        }
    ],
    "buffers": [
        {
            "byteLength": 2136060,
            "uri": "worm1 resources/worm1.bin"
        }
    ],
    "cameras": [
        {
            "name": "active",
            "perspective": {
                "aspectRatio": 1,
                "yfov": 0.6911154697478635,
                "zfar": 1246.006591796875,
                "znear": 599.8771362304688
            },
            "type": "perspective"
        }
    ],
    "materials": [
        {
            "doubleSided": true,
            "pbrMetallicRoughness": {
                "baseColorFactor": [
                    0.02250000089406967,
                    0.36000001430511475,
                    0.5625,
                    1
                ],
                "metallicFactor": 0,
                "roughnessFactor": 0.5575000010430813
            }
        },
        {
            "alphaMode": "BLEND",
            "doubleSided": true,
            "pbrMetallicRoughness": {
                "baseColorFactor": [
                    0.32804998755455017,
                    0.4050000011920929,
                    0.34031251072883606,
                    0.5
                ],
                "metallicFactor": 0,
                "roughnessFactor": 0.2
            }
        },
        {
            "doubleSided": true,
            "pbrMetallicRoughness": {
                "baseColorFactor": [
                    0.32942700386047363,
                    0.9024950265884399,
                    0.002236250089481473,
                    1
                ],
                "metallicFactor": 0,
                "roughnessFactor": 0.5750000029802322
            }
        },
        {
            "doubleSided": true,
            "pbrMetallicRoughness": {
                "baseColorFactor": [
                    1,
                    1,
                    1,
                    1
                ],
                "metallicFactor": 0,
                "roughnessFactor": 0.5750000029802322
            }
        },
        {
            "doubleSided": true,
            "pbrMetallicRoughness": {
                "baseColorFactor": [
                    0.011764699593186378,
                    0.011764699593186378,
                    0.011764699593186378,
                    1
                ],
                "metallicFactor": 0,
                "roughnessFactor": 0.5
            }
        },
        {
            "doubleSided": true,
            "pbrMetallicRoughness": {
                "baseColorFactor": [
                    1,
                    0,
                    0,
                    1
                ],
                "metallicFactor": 0,
                "roughnessFactor": 0.5750000029802322
            }
        },
        {
            "doubleSided": true,
            "pbrMetallicRoughness": {
                "baseColorFactor": [
                    0,
                    0,
                    0,
                    1
                ],
                "metallicFactor": 0,
                "roughnessFactor": 0.5750000029802322
            }
        }
    ],
    "meshes": [
        {
            "name": "sfere-mesh",
            "primitives": [
                {
                    "attributes": {
                        "NORMAL": 1,
                        "POSITION": 0
                    },
                    "indices": 2,
                    "material": 0,
                    "mode": 4
                }
            ]
        },
        {
            "name": "body-mesh",
            "primitives": [
                {
                    "attributes": {
                        "NORMAL": 4,
                        "POSITION": 3
                    },
                    "indices": 5,
                    "material": 1,
                    "mode": 4
                }
            ]
        },
        {
            "name": "antenne-mesh",
            "primitives": [
                {
                    "attributes": {
                        "NORMAL": 7,
                        "POSITION": 6
                    },
                    "indices": 8,
                    "material": 2,
                    "mode": 4
                }
            ]
        },
        {
            "name": "provaeyes-mesh",
            "primitives": [
                {
                    "attributes": {
                        "NORMAL": 10,
                        "POSITION": 9
                    },
                    "indices": 11,
                    "material": 3,
                    "mode": 4
                }
            ]
        },
        {
            "name": "torus-mesh",
            "primitives": [
                {
                    "attributes": {
                        "NORMAL": 13,
                        "POSITION": 12
                    },
                    "indices": 14,
                    "mode": 4
                }
            ]
        },
        {
            "name": "eyes-mesh",
            "primitives": [
                {
                    "attributes": {
                        "NORMAL": 16,
                        "POSITION": 15
                    },
                    "indices": 17,
                    "material": 4,
                    "mode": 4
                }
            ]
        },
        {
            "name": "smile-mesh",
            "primitives": [
                {
                    "attributes": {
                        "NORMAL": 19,
                        "POSITION": 18
                    },
                    "indices": 20,
                    "material": 5,
                    "mode": 4
                }
            ]
        },
        {
            "name": "light-mesh",
            "primitives": [
                {
                    "attributes": {
                        "NORMAL": 22,
                        "POSITION": 21
                    },
                    "indices": 23,
                    "material": 6,
                    "mode": 4
                }
            ]
        }
    ],
    "nodes": [
        {
            "camera": 0,
            "matrix": [
                -0.8408094252705385,
                -1.0765564661951998e-07,
                -0.5413311653098491,
                0,
                -0.08874155525357644,
                0.9864715976712135,
                0.13783545942422773,
                0,
                0.5340078473091125,
                0.1639319360256195,
                -0.8294346928596497,
                0,
                526.031005859375,
                373.34100341796875,
                -805.2490234375,
                1
            ],
            "name": "active"
        },
        {
            "mesh": 0,
            "name": "sfere"
        },
        {
            "children": [
                1
            ],
            "name": "sfere"
        },
        {
            "mesh": 1,
            "name": "body"
        },
        {
            "children": [
                3
            ],
            "name": "body"
        },
        {
            "mesh": 2,
            "name": "antenne"
        },
        {
            "children": [
                5
            ],
            "name": "antenne"
        },
        {
            "mesh": 3,
            "name": "provaeyes"
        },
        {
            "children": [
                7
            ],
            "name": "provaeyes"
        },
        {
            "mesh": 4,
            "name": "torus"
        },
        {
            "children": [
                9
            ],
            "name": "torus"
        },
        {
            "mesh": 5,
            "name": "eyes"
        },
        {
            "children": [
                11
            ],
            "name": "eyes"
        },
        {
            "mesh": 6,
            "name": "smile"
        },
        {
            "children": [
                13
            ],
            "name": "smile"
        },
        {
            "mesh": 7,
            "name": "light"
        },
        {
            "children": [
                15
            ],
            "name": "light"
        },
        {
            "children": [
                2,
                4,
                6,
                8,
                10,
                12,
                14,
                16
            ],
            "matrix": [
                1,
                0,
                0,
                0,
                0,
                4.5000000170603016e-08,
                -1,
                0,
                0,
                1,
                4.5000000170603016e-08,
                0,
                12.57390022277832,
                2.3691599369049072,
                -0.2848280072212219,
                1
            ],
            "name": "prova modellookok"
        },
        {
            "children": [
                17
            ],
            "name": "Default"
        }
    ],
    "scenes": [
        {
            "nodes": [
                0,
                18
            ]
        }
    ]
}
